<svg xmlns="http://www.w3.org/2000/svg" viewBox="0 0 340 110" fill="none">
  <g transform="translate(0,0) scale(0.85)">
    <circle cx="60" cy="62" r="40" fill="#141416"></circle>
    <path d="M24 38 Q16 58 22 78 Q30 82 36 72 Q32 54 34 40 Q30 34 24 38 Z" fill="#141416"></path>
    <path d="M96 38 Q104 58 98 78 Q90 82 84 72 Q88 54 86 40 Q90 34 96 38 Z" fill="#141416"></path>
    <rect x="32" y="92" width="56" height="6" rx="3" fill="#D4FB3C"></rect>
    <ellipse cx="60" cy="76" rx="20" ry="16" fill="#2E2E33"></ellipse>
    <ellipse cx="60" cy="66" rx="7" ry="5.5" fill="#F8F8F5"></ellipse>
    <circle cx="46" cy="54" r="3.8" fill="#F8F8F5"></circle>
    <circle cx="74" cy="54" r="3.8" fill="#F8F8F5"></circle>
    <path d="M60 72 L60 80 Q56 84 52 82 M60 80 Q64 84 68 82" stroke="#F8F8F5" stroke-width="2.2" stroke-linecap="round" fill="none"></path>
  </g>
  <text x="120" y="66" font-family="&#39;General Sans&#39;, sans-serif" font-size="58" font-weight="700" fill="#141416" letter-spacing="-2">milo</text>
  <circle cx="135" cy="22" r="5" fill="#D4FB3C"></circle>
</svg>